<?xml version="1.0" encoding="UTF-8"?>
<svg xmlns="http://www.w3.org/2000/svg" xmlns:xlink="http://www.w3.org/1999/xlink" width="271.025pt" height="237.491pt" viewBox="0 0 271.025 237.491" version="1.1">
<g id="surface1">
<path style="fill-rule:nonzero;fill:rgb(75%,75%,75%);fill-opacity:1;stroke-width:0.79701;stroke-linecap:butt;stroke-linejoin:bevel;stroke:rgb(0%,0%,0%);stroke-opacity:1;stroke-miterlimit:10;" d="M -61.371375 -35.432406 L -86.883094 -35.432406 L 12.757531 137.149625 L 125.152062 -57.526156 L 112.398156 -79.619906 L 12.757531 92.962125 Z M -61.371375 -35.432406 " transform="matrix(1,0,0,-1,135.512,147.509)"/>
<path style="fill-rule:nonzero;fill:rgb(87.5%,87.5%,87.5%);fill-opacity:1;stroke-width:0.79701;stroke-linecap:butt;stroke-linejoin:bevel;stroke:rgb(0%,0%,0%);stroke-opacity:1;stroke-miterlimit:10;" d="M 61.374719 -35.432406 L 74.128625 -57.526156 L -125.152625 -57.526156 L -12.754188 137.149625 L 12.757531 137.149625 L -86.883094 -35.432406 Z M 61.374719 -35.432406 " transform="matrix(1,0,0,-1,135.512,147.509)"/>
<path style="fill-rule:nonzero;fill:rgb(54.998779%,54.998779%,54.998779%);fill-opacity:1;stroke-width:0.79701;stroke-linecap:butt;stroke-linejoin:bevel;stroke:rgb(0%,0%,0%);stroke-opacity:1;stroke-miterlimit:10;" d="M -0.00028125 70.868375 L 12.757531 92.962125 L 112.398156 -79.619906 L -112.398719 -79.623812 L -125.152625 -57.526156 L 74.128625 -57.526156 Z M -0.00028125 70.868375 " transform="matrix(1,0,0,-1,135.512,147.509)"/>
</g>
</svg>
